<?xml version="1.0" standalone="no"?>
<!DOCTYPE svg PUBLIC "-//W3C//DTD SVG 20010904//EN"
 "http://www.w3.org/TR/2001/REC-SVG-20010904/DTD/svg10.dtd">
<svg version="1.0" xmlns="http://www.w3.org/2000/svg"
 width="1024.000000pt" height="1024.000000pt" viewBox="0 0 1024.000000 1024.000000"
 preserveAspectRatio="xMidYMid meet">
<metadata>
Created by potrace 1.14, written by Peter Selinger 2001-2017
</metadata>
<g transform="translate(0.000000,1024.000000) scale(0.100000,-0.100000)"
fill="#000000" stroke="none">
<path d="M2087 7924 c-1 -1 -36 -4 -77 -7 -187 -15 -344 -102 -476 -263 -80
-97 -123 -196 -143 -329 -5 -27 -7 -1038 -7 -2245 l2 -2195 27 -80 c36 -109
89 -196 169 -277 118 -119 252 -187 403 -205 78 -9 6191 -9 6273 0 99 11 224
61 309 123 64 47 156 148 196 215 38 65 74 162 85 234 4 22 6 818 7 1770 0
1918 4 1774 -64 1922 -93 199 -294 354 -508 391 -30 5 -668 10 -1480 10 -786
0 -1433 1 -1440 1 -6 1 -221 211 -477 468 l-466 466 -1166 1 c-641 1 -1166 0
-1167 0z"/>
</g>
</svg>
